# xmcd CD database file
#
# Track frame offsets:
#	150
#	10020
#	22350
#	33550
#	46165
#	57940
#	69780
#	80317
#	92750
#	106447
#	117300
#	126477
#	137410
#	151025
#	166847
#	178352
#	195132
#	207402
#	220412
#	233990
#	249460
#	267767
#	281882
#	299245
#	311910
#
# Disc length: 4297 seconds
#
# Revision: 0
# Processed by: cddbd v1.4PL0 Copyright (c) Steve Scherf et al.
# Submitted via: Feurio! 1.66 - http://www.feurio.com
#
DISCID=7210c719
DTITLE=Dean MARTIN - Dino - The golden years - 4/4
DYEAR=1900
DGENRE=Country
TTITLE0=Singing the blues
TTITLE1=I can't help it (if I'm still in love with you)
TTITLE2=The tips of my fingers
TTITLE3=He's got you
TTITLE4=Things
TTITLE5=I'm so lonesome I could cry
TTITLE6=You better move on
TTITLE7=Take these chains from my heart
TTITLE8=Where the blue and lonely go
TTITLE9=Clinging vine
TTITLE10=My heart is an open book
TTITLE11=I walk the line
TTITLE12=Room full of roses
TTITLE13=My woman my woman my wife
TTITLE14=Together again
TTITLE15=Detroit city
TTITLE16=Walk on by
TTITLE17=Shutters and boards
TTITLE18=Georgia sunshine
TTITLE19=Kiss the world goodbye
TTITLE20=Honey
TTITLE21=Here we go again
TTITLE22=For the good times
TTITLE23=By the time I get to Phoenix
TTITLE24=For once in my life
EXTD=For once in my life
EXTT0=
EXTT1=
EXTT2=
EXTT3=
EXTT4=
EXTT5=
EXTT6=
EXTT7=
EXTT8=
EXTT9=
EXTT10=
EXTT11=
EXTT12=
EXTT13=
EXTT14=
EXTT15=
EXTT16=
EXTT17=
EXTT18=
EXTT19=
EXTT20=
EXTT21=
EXTT22=
EXTT23=
EXTT24=
PLAYORDER=
